<?xml version="1.0" encoding="UTF-8" standalone="no"?>
<svg
   xmlns:dc="http://purl.org/dc/elements/1.1/"
   xmlns:cc="http://creativecommons.org/ns#"
   xmlns:rdf="http://www.w3.org/1999/02/22-rdf-syntax-ns#"
   xmlns:svg="http://www.w3.org/2000/svg"
   xmlns="http://www.w3.org/2000/svg"
   xmlns:sodipodi="http://sodipodi.sourceforge.net/DTD/sodipodi-0.dtd"
   xmlns:inkscape="http://www.inkscape.org/namespaces/inkscape"
   height="464pt"
   viewBox="0 0 464 464"
   width="464pt"
   version="1.1"
   id="svg78"
   sodipodi:docname="assetIcon.svg"
   inkscape:version="0.92.4 (unknown)">
  <metadata
     id="metadata84">
    <rdf:RDF>
      <cc:Work
         rdf:about="">
        <dc:format>image/svg+xml</dc:format>
        <dc:type
           rdf:resource="http://purl.org/dc/dcmitype/StillImage" />
      </cc:Work>
    </rdf:RDF>
  </metadata>
  <defs
     id="defs82" />
  <sodipodi:namedview
     pagecolor="#ffffff"
     bordercolor="#666666"
     borderopacity="1"
     objecttolerance="10"
     gridtolerance="10"
     guidetolerance="10"
     inkscape:pageopacity="0"
     inkscape:pageshadow="2"
     inkscape:window-width="1366"
     inkscape:window-height="718"
     id="namedview80"
     showgrid="false"
     inkscape:zoom="0.38146552"
     inkscape:cx="309.33333"
     inkscape:cy="309.33333"
     inkscape:window-x="0"
     inkscape:window-y="0"
     inkscape:window-maximized="1"
     inkscape:current-layer="svg78" />
  <path
     d="m20.800781 269.359375c-24.195312-41.988281-9.886719-95.632813 32-120l-12-20.71875 55.199219 14.398437-14.640625 54.640626-12-20.800782c-26.765625 15.46875-35.933594 49.707032-20.480469 76.480469l20.800782-12-15.039063 54.640625-54.640625-14.640625zm0 0"
     fill="#a1d51c"
     id="path2"
     style="fill:#2b0022;fill-opacity:0.8669951" />
  <path
     d="m443.199219 269.359375c24.195312-41.988281 9.886719-95.632813-32-120l12-20.71875-54.640625 14.640625 14.640625 54.640625 12-20.800781c26.769531 15.46875 35.9375 49.703125 20.480469 76.480468l-20.800782-12 14.480469 54.398438 54.640625-14.640625zm0 0"
     fill="#a1d51c"
     id="path4"
     style="fill:#2b0022;fill-opacity:0.88177335" />
  <path
     d="m328 96c0 53.019531-42.980469 96-96 96s-96-42.980469-96-96 42.980469-96 96-96 96 42.980469 96 96zm0 0"
     fill="#f9e109"
     id="path6" />
  <path
     d="m304 96c0 39.765625-32.234375 72-72 72s-72-32.234375-72-72 32.234375-72 72-72 72 32.234375 72 72zm0 0"
     fill="#fcbc04"
     id="path8" />
  <path
     d="m232 24c-25.105469.019531-48.386719 13.117188-61.441406 34.558594 28.355468-17.164063 64.765625-12.753906 88.199218 10.683594 23.4375 23.433593 27.847657 59.84375 10.683594 88.199218 27.507813-16.808594 40.492188-49.851562 31.785156-80.890625-8.710937-31.039062-36.988281-52.507812-69.226562-52.550781zm0 0"
     fill="#e59730"
     id="path10"
     style="fill:#2e0025;fill-opacity:0.817734" />
  <path
     d="m304 304h-144l24-80h96zm0 0"
     fill="#fcbc04"
     id="path12" />
  <path
     d="m237.761719 288c-12.652344.003906-24.5625-5.976562-32.113281-16.128906-7.550782-10.148438-9.851563-23.277344-6.207032-35.390625l3.757813-12.480469h-19.199219l-24 80h144l-4.800781-16zm0 0"
     fill="#e59730"
     id="path14"
     style="fill:#2b0022;fill-opacity:0.83251226" />
  <path
     d="m252.71875 235.199219c12.347656 3.082031 22.964844 10.9375 29.519531 21.839843l15.363281 25.601563-17.601562-58.640625h-72zm0 0"
     fill="#f9e109"
     id="path16" />
  <path
     d="m232 384h-144l24-80h96zm0 0"
     fill="#fcbc04"
     id="path18" />
  <path
     d="m165.761719 368c-12.652344.003906-24.5625-5.976562-32.113281-16.128906-7.550782-10.148438-9.851563-23.277344-6.207032-35.390625l3.757813-12.480469h-19.199219l-24 80h144l-4.800781-16zm0 0"
     fill="#e59730"
     id="path20"
     style="fill:#2b0022;fill-opacity:0.85221672" />
  <path
     d="m180.71875 315.199219c12.347656 3.082031 22.964844 10.9375 29.519531 21.839843l15.363281 25.601563-17.601562-58.640625h-72zm0 0"
     fill="#f9e109"
     id="path22" />
  <path
     d="m376 384h-144l24-80h96zm0 0"
     fill="#fcbc04"
     id="path24" />
  <path
     d="m 314.5625,368 c -12.65234,0.004 -24.5625,-5.97656 -32.11328,-16.12891 -7.55078,-10.14843 -9.85156,-23.27734 -6.20703,-35.39062 L 280,304 h -19.19922 l -24,80 h 144 L 376,368 Z m 0,0"
     id="path26"
     inkscape:connector-curvature="0"
     style="fill:#2b0022;fill-opacity:0.78325117" />
  <path
     d="m324.71875 315.199219c12.347656 3.082031 22.964844 10.9375 29.519531 21.839843l15.363281 25.601563-17.601562-58.640625h-72zm0 0"
     fill="#f9e109"
     id="path28" />
  <path
     d="m160 464h-144l24-80h96zm0 0"
     fill="#fcbc04"
     id="path30" />
  <path
     d="m93.761719 448c-12.652344.003906-24.5625-5.976562-32.113281-16.128906-7.550782-10.148438-9.851563-23.277344-6.207032-35.390625l3.757813-12.480469h-19.199219l-24 80h144l-4.800781-16zm0 0"
     fill="#e59730"
     id="path32"
     style="fill:#2b0022" />
  <path
     d="m108.71875 395.199219c12.347656 3.082031 22.964844 10.9375 29.519531 21.839843l15.363281 25.601563-17.601562-58.640625h-72zm0 0"
     fill="#f9e109"
     id="path34" />
  <path
     d="m304 464h-144l24-80h96zm0 0"
     fill="#fcbc04"
     id="path36" />
  <path
     d="m237.761719 448c-12.652344.003906-24.5625-5.976562-32.113281-16.128906-7.550782-10.148438-9.851563-23.277344-6.207032-35.390625l3.757813-12.480469h-19.199219l-24 80h144l-4.800781-16zm0 0"
     fill="#e59730"
     id="path38"
     style="fill:#2b0022" />
  <path
     d="m252.71875 395.199219c12.347656 3.082031 22.964844 10.9375 29.519531 21.839843l15.363281 25.601563-17.601562-58.640625h-72zm0 0"
     fill="#f9e109"
     id="path40" />
  <path
     d="m448 464h-144l24-80h96zm0 0"
     fill="#fcbc04"
     id="path42" />
  <path
     d="m381.761719 448c-12.652344.003906-24.5625-5.976562-32.113281-16.128906-7.550782-10.148438-9.851563-23.277344-6.207032-35.390625l3.757813-12.480469h-19.199219l-24 80h144l-4.800781-16zm0 0"
     fill="#e59730"
     id="path44"
     style="fill:#2b0022" />
  <path
     d="m396.71875 395.199219c12.347656 3.082031 22.964844 10.9375 29.519531 21.839843l15.363281 25.601563-17.601562-58.640625h-72zm0 0"
     fill="#f9e109"
     id="path46" />
  <path
     d="m 455.1211,228.16015 c 0.96094,-32.34375 -15.90625,-62.60937 -43.92188,-78.80078 l 12,-20.72265 -54.64062,14.64062 5.12109,19.03906 c 36.36719,7.125 66.85938,31.77344 81.44141,65.84375 z m 0,0"
     id="path48"
     inkscape:connector-curvature="0"
     style="fill:#c4f236" />
  <path
     d="m 18.320312,186 c 14.3125,-6.44141 29.828125,-9.76563 45.519531,-9.76172 7.46875,0.0117 14.917969,0.76172 22.238281,2.23828 l 9.761719,-35.19922 -55.039062,-14.64063 12,20.72266 C 37.984374,157.95703 26.003905,170.6914 18.320312,186 Z m 0,0"
     id="path50"
     inkscape:connector-curvature="0"
     style="fill:#c4f236" />
  <g
     id="g76"
     fill="#f9e109">
    <path
       d="m232 56c8.835938 0 16 7.164062 16 16 0 4.417969 3.582031 8 8 8s8-3.582031 8-8c-.046875-14.554688-9.910156-27.242188-24-30.878906v-9.121094c0-4.417969-3.582031-8-8-8s-8 3.582031-8 8v9.121094c-15.40625 4.183594-25.375 19.082031-23.359375 34.917968 2.015625 15.839844 15.394531 27.769532 31.359375 27.960938 8.835938 0 16 7.164062 16 16s-7.164062 16-16 16-16-7.164062-16-16c0-4.417969-3.582031-8-8-8s-8 3.582031-8 8c.046875 14.554688 9.910156 27.242188 24 30.878906v9.121094c0 4.417969 3.582031 8 8 8s8-3.582031 8-8v-9.121094c15.40625-4.183594 25.375-19.082031 23.359375-34.917968-2.015625-15.839844-15.394531-27.769532-31.359375-27.960938-8.835938 0-16-7.164062-16-16s7.164062-16 16-16zm0 0"
       id="path52" />
    <path
       d="m248 248h-32c-4.417969 0-8 3.582031-8 8s3.582031 8 8 8h32c4.417969 0 8-3.582031 8-8s-3.582031-8-8-8zm0 0"
       id="path54" />
    <path
       d="m320 328h-32c-4.417969 0-8 3.582031-8 8s3.582031 8 8 8h32c4.417969 0 8-3.582031 8-8s-3.582031-8-8-8zm0 0"
       id="path56" />
    <path
       d="m176 328h-32c-4.417969 0-8 3.582031-8 8s3.582031 8 8 8h32c4.417969 0 8-3.582031 8-8s-3.582031-8-8-8zm0 0"
       id="path58" />
    <path
       d="m248 408h-32c-4.417969 0-8 3.582031-8 8s3.582031 8 8 8h32c4.417969 0 8-3.582031 8-8s-3.582031-8-8-8zm0 0"
       id="path60" />
    <path
       d="m392 408h-32c-4.417969 0-8 3.582031-8 8s3.582031 8 8 8h32c4.417969 0 8-3.582031 8-8s-3.582031-8-8-8zm0 0"
       id="path62" />
    <path
       d="m104 408h-32c-4.417969 0-8 3.582031-8 8s3.582031 8 8 8h32c4.417969 0 8-3.582031 8-8s-3.582031-8-8-8zm0 0"
       id="path64" />
    <path
       d="m352 232c4.417969 0 8-3.582031 8-8s-3.582031-8-8-8h-8v-8c0-4.417969-3.582031-8-8-8s-8 3.582031-8 8v8h-8c-4.417969 0-8 3.582031-8 8s3.582031 8 8 8h8v8c0 4.417969 3.582031 8 8 8s8-3.582031 8-8v-8zm0 0"
       id="path66" />
    <path
       d="m136 232c4.417969 0 8-3.582031 8-8s-3.582031-8-8-8h-8v-8c0-4.417969-3.582031-8-8-8s-8 3.582031-8 8v8h-8c-4.417969 0-8 3.582031-8 8s3.582031 8 8 8h8v8c0 4.417969 3.582031 8 8 8s8-3.582031 8-8v-8zm0 0"
       id="path68" />
    <path
       d="m48 328h-8v-8c0-4.417969-3.582031-8-8-8s-8 3.582031-8 8v8h-8c-4.417969 0-8 3.582031-8 8s3.582031 8 8 8h8v8c0 4.417969 3.582031 8 8 8s8-3.582031 8-8v-8h8c4.417969 0 8-3.582031 8-8s-3.582031-8-8-8zm0 0"
       id="path70" />
    <path
       d="m456 328h-8v-8c0-4.417969-3.582031-8-8-8s-8 3.582031-8 8v8h-8c-4.417969 0-8 3.582031-8 8s3.582031 8 8 8h8v8c0 4.417969 3.582031 8 8 8s8-3.582031 8-8v-8h8c4.417969 0 8-3.582031 8-8s-3.582031-8-8-8zm0 0"
       id="path72" />
    <path
       d="m64 88c0 4.417969 3.582031 8 8 8s8-3.582031 8-8v-8h8c4.417969 0 8-3.582031 8-8s-3.582031-8-8-8h-8v-8c0-4.417969-3.582031-8-8-8s-8 3.582031-8 8v8h-8c-4.417969 0-8 3.582031-8 8s3.582031 8 8 8h8zm0 0"
       id="path74" />
  </g>
</svg>
