<?xml version="1.0" encoding="UTF-8" standalone="no"?>
<svg
   xmlns:dc="http://purl.org/dc/elements/1.1/"
   xmlns:cc="http://creativecommons.org/ns#"
   xmlns:rdf="http://www.w3.org/1999/02/22-rdf-syntax-ns#"
   xmlns:svg="http://www.w3.org/2000/svg"
   xmlns="http://www.w3.org/2000/svg"
   xmlns:sodipodi="http://sodipodi.sourceforge.net/DTD/sodipodi-0.dtd"
   xmlns:inkscape="http://www.inkscape.org/namespaces/inkscape"
   id="Layer_3"
   enable-background="new 0 0 64 64"
   height="512"
   viewBox="0 0 64 64"
   width="512"
   version="1.1"
   sodipodi:docname="comitIcon.svg"
   inkscape:version="0.92.4 (unknown)">
  <metadata
     id="metadata29">
    <rdf:RDF>
      <cc:Work
         rdf:about="">
        <dc:format>image/svg+xml</dc:format>
        <dc:type
           rdf:resource="http://purl.org/dc/dcmitype/StillImage" />
      </cc:Work>
    </rdf:RDF>
  </metadata>
  <defs
     id="defs27" />
  <sodipodi:namedview
     pagecolor="#ffffff"
     bordercolor="#666666"
     borderopacity="1"
     objecttolerance="10"
     gridtolerance="10"
     guidetolerance="10"
     inkscape:pageopacity="0"
     inkscape:pageshadow="2"
     inkscape:window-width="1366"
     inkscape:window-height="718"
     id="namedview25"
     showgrid="false"
     inkscape:zoom="0.4609375"
     inkscape:cx="282.0339"
     inkscape:cy="232.13559"
     inkscape:window-x="0"
     inkscape:window-y="0"
     inkscape:window-maximized="1"
     inkscape:current-layer="Layer_3" />
  <path
     d="m 111.89831,33.661017 -10.382,-1 -2.656005,1.974 0.038,0.026 -0.039,-0.026 -3.88,2.884 c -1.274,0.849 -1.453,2.652 -0.37,3.735 0.818,0.818 2.1,0.945 3.062,0.303 l 3.845005,-2.896 -3.845005,2.896 c -0.963,0.642 -2.244,0.515 -3.062,-0.303 -1.083,-1.083 -0.904,-2.886 0.37,-3.735 l 3.88,-2.884 -2.961,-1.974 -11,1 -6,-1 v 14 h 5 l 15,6 11.000005,-3 -11.000005,-9 11.000005,9 7,-2 v -15 z"
     id="path2"
     inkscape:connector-curvature="0"
     style="fill:#f2f8ff" />
  <g
     fill="#57a5ff"
     id="g10"
     style="fill:#11002b">
    <path
       d="m13 36h-4v16h4v-1-14z"
       id="path4"
       style="fill:#11002b" />
    <path
       d="m51 37v15h4v-16h-4z"
       id="path6"
       style="fill:#11002b" />
    <circle
       cx="32"
       cy="21"
       r="14"
       id="circle8"
       style="fill:#11002b" />
  </g>
  <path
     d="m55 35h6v18h-6z"
     fill="#004fa8"
     id="path12"
     style="fill:#ff0000" />
  <path
     d="m3 35h6v18h-6z"
     fill="#004fa8"
     id="path14"
     style="fill:#ff0000" />
  <path
     d="m31 7.05c-.338.024-.669.072-1 .119 6.781.973 12 6.781 12 13.831s-5.219 12.858-12 13.83c.331.047.662.095 1 .119 7.263-.515 13-6.555 13-13.95s-5.737-13.434-13-13.949z"
     fill="#f2f8ff"
     id="path16" />
  <path
     d="m 61.75,33.82 h -6 c -0.552,0 -1,0.447 -1,1 h -3 c -0.552,0 -1,0.447 -1,1 V 36 l -4.051,0.81 -10.235,-0.985 c -0.244,-0.021 -0.493,0.044 -0.692,0.192 l -2.091,1.555 -2.376,-1.584 C 31.115,35.861 30.882,35.8 30.66,35.824 L 19.788,36.812 14.75,35.973 V 35.82 c 0,-0.553 -0.448,-1 -1,-1 h -3 c 0,-0.553 -0.448,-1 -1,-1 h -6 c -0.552,0 -1,0.447 -1,1 v 4 h 2 v -3 h 4 v 16 h -4 v -11 h -2 v 12 c 0,0.553 0.448,1 1,1 h 6 c 0.552,0 1,-0.447 1,-1 h 3 c 0.552,0 1,-0.447 1,-1 h 3.808 l 14.821,5.929 c 0.119,0.047 0.245,0.071 0.371,0.071 0.088,0 0.177,-0.012 0.263,-0.035 l 11,-3 c 0.004,-10e-4 0.007,-0.004 0.011,-0.005 l 10e-4,0.002 6.867,-1.962 h 2.858 c 0,0.553 0.448,1 1,1 h 6 c 0.551999,0 0.999999,-0.447 0.999999,-1 v -4 H 60.75 v 3 h -4 v -16 h 4 v 11 h 2 v -12 c 0,-0.553 -0.448,-1 -1,-1 z m -25.095,4.032 9.999,0.963 c 0.098,0.009 0.195,0.004 0.292,-0.015 l 3.804,-0.76 v 13.026 l -5.772,1.649 -9.627,-7.877 1.618,-1.219 -1.203,-1.598 -3.798,2.863 c -0.564,0.376 -1.322,0.301 -1.8,-0.179 -0.304,-0.304 -0.453,-0.722 -0.411,-1.149 0.042,-0.427 0.271,-0.808 0.67,-1.075 z M 12.75,50.82 h -2 v -14 h 2 z M 33.81,55.767 19.122,49.891 C 19.003,49.844 18.877,49.82 18.75,49.82 h -4 V 38 l 4.835,0.806 c 0.084,0.014 0.171,0.018 0.255,0.01 l 10.648,-0.968 1.487,0.991 -2.699,2.007 c -0.858,0.571 -1.408,1.487 -1.51,2.514 -0.102,1.025 0.258,2.032 0.987,2.76 0.655,0.654 1.525,0.995 2.412,0.995 0.673,0 1.355,-0.196 1.959,-0.6 l 0.582,-0.438 8.909,7.289 z M 52.75,50.82 v -14 h 2 v 14 z"
     id="path18"
     style="fill:#280b22"
     inkscape:connector-curvature="0" />
  <path
     d="m 35.101695,18 v -0.5 c 0,-2.31 -1.756,-4.197 -4,-4.449 V 10 h -2 v 3.051 c -2.244,0.252 -4,2.139 -4,4.449 0,2.481 2.019,4.5 4.5,4.5 h 1 c 1.378,0 2.5,1.121 2.5,2.5 0,1.379 -1.122,2.5 -2.5,2.5 h -1 c -1.378,0 -2.5,-1.121 -2.5,-2.5 V 24 h -2 v 0.5 c 0,2.31 1.756,4.197 4,4.449 V 32 h 2 v -3.051 c 2.244,-0.252 4,-2.139 4,-4.449 0,-2.481 -2.019,-4.5 -4.5,-4.5 h -1 c -1.378,0 -2.5,-1.121 -2.5,-2.5 0,-1.379 1.122,-2.5 2.5,-2.5 h 1 c 1.378,0 2.5,1.121 2.5,2.5 V 18 Z"
     id="path20"
     inkscape:connector-curvature="0"
     style="fill:#ffffff" />
  <path
     d="m 54.298,21.695 1.791,-0.891 C 51.321,11.21 41.708,5.25 31,5.25 20.292,5.25 10.679,11.21 5.911,20.805 l 1.791,0.891 C 12.13,12.785 21.057,7.25 31,7.25 c 9.943,0 18.87,5.535 23.298,14.445 z"
     id="path22"
     style="fill:#280b22"
     inkscape:connector-curvature="0" />
</svg>
