<?xml version="1.0" encoding="UTF-8" standalone="no"?>
<!-- Generator: Adobe Illustrator 19.0.0, SVG Export Plug-In . SVG Version: 6.00 Build 0)  -->

<svg
   xmlns:dc="http://purl.org/dc/elements/1.1/"
   xmlns:cc="http://creativecommons.org/ns#"
   xmlns:rdf="http://www.w3.org/1999/02/22-rdf-syntax-ns#"
   xmlns:svg="http://www.w3.org/2000/svg"
   xmlns="http://www.w3.org/2000/svg"
   xmlns:sodipodi="http://sodipodi.sourceforge.net/DTD/sodipodi-0.dtd"
   xmlns:inkscape="http://www.inkscape.org/namespaces/inkscape"
   version="1.1"
   id="Capa_1"
   x="0px"
   y="0px"
   viewBox="0 0 433.152 433.152"
   style="enable-background:new 0 0 433.152 433.152;"
   xml:space="preserve"
   sodipodi:docname="contactIcon.svg"
   inkscape:version="0.92.4 (unknown)"><metadata
   id="metadata55"><rdf:RDF><cc:Work
       rdf:about=""><dc:format>image/svg+xml</dc:format><dc:type
         rdf:resource="http://purl.org/dc/dcmitype/StillImage" /></cc:Work></rdf:RDF></metadata><defs
   id="defs53" /><sodipodi:namedview
   pagecolor="#ffffff"
   bordercolor="#666666"
   borderopacity="1"
   objecttolerance="10"
   gridtolerance="10"
   guidetolerance="10"
   inkscape:pageopacity="0"
   inkscape:pageshadow="2"
   inkscape:window-width="1366"
   inkscape:window-height="718"
   id="namedview51"
   showgrid="false"
   inkscape:zoom="0.54484337"
   inkscape:cx="-98.193362"
   inkscape:cy="216.576"
   inkscape:window-x="0"
   inkscape:window-y="0"
   inkscape:window-maximized="1"
   inkscape:current-layer="Capa_1" />
<g
   id="g6"
   style="fill:#22002b">
	<g
   id="g4"
   style="fill:#22002b">
		<path
   d="M359.168,0H73.472c-29.696,0-53.76,24.064-53.76,53.76v325.632c0,29.696,24.064,53.76,53.76,53.76H359.68    c29.696,0,53.76-24.064,53.76-53.76V53.76C412.928,24.064,388.864,0,359.168,0z M387.84,379.392h-0.512    c0,15.36-12.8,28.16-28.16,28.16H114.944V25.6H359.68c15.36,0,28.16,12.8,28.16,28.16V379.392z"
   style="fill:#22002b"
   id="path2" />
	</g>
</g>
<g
   id="g12">
	<g
   id="g10">
		<path
   d="M252.16,93.184c-34.304,0-62.464,28.16-62.464,62.464c0,34.816,28.16,62.464,62.464,62.976    c34.304,0,62.464-28.16,62.464-62.464S286.464,93.184,252.16,93.184z"
   style="fill:#22002b"
   id="path8" />
	</g>
</g>
<g
   id="g18">
	<g
   id="g16"
   style="fill:#22002b">
		<path
   d="M355.584,278.528c-22.528-34.816-61.44-56.32-103.424-55.808c-41.984-0.512-80.896,20.992-103.424,55.808    c-6.144,8.704-9.216,19.456-8.704,30.208v18.432c0,7.168,5.632,12.8,12.8,12.8h198.656c7.168,0,12.8-5.632,12.8-12.8v-18.432    C364.288,297.984,361.216,287.744,355.584,278.528z"
   style="fill:#22002b"
   id="path14" />
	</g>
</g>
<g
   id="g20">
</g>
<g
   id="g22">
</g>
<g
   id="g24">
</g>
<g
   id="g26">
</g>
<g
   id="g28">
</g>
<g
   id="g30">
</g>
<g
   id="g32">
</g>
<g
   id="g34">
</g>
<g
   id="g36">
</g>
<g
   id="g38">
</g>
<g
   id="g40">
</g>
<g
   id="g42">
</g>
<g
   id="g44">
</g>
<g
   id="g46">
</g>
<g
   id="g48">
</g>
<rect
   style="opacity:1;fill:#999999;fill-opacity:0.34975377;fill-rule:evenodd;stroke:#ffffff;stroke-width:0.93577915;stroke-miterlimit:4;stroke-dasharray:none;stroke-opacity:0"
   id="rect32"
   width="173.54544"
   height="383.75705"
   x="80.968468"
   y="25.519718" /></svg>