<?xml version="1.0" encoding="UTF-8" standalone="no"?>
<!-- Generator: Adobe Illustrator 16.0.0, SVG Export Plug-In . SVG Version: 6.00 Build 0)  -->

<svg
   xmlns:dc="http://purl.org/dc/elements/1.1/"
   xmlns:cc="http://creativecommons.org/ns#"
   xmlns:rdf="http://www.w3.org/1999/02/22-rdf-syntax-ns#"
   xmlns:svg="http://www.w3.org/2000/svg"
   xmlns="http://www.w3.org/2000/svg"
   xmlns:sodipodi="http://sodipodi.sourceforge.net/DTD/sodipodi-0.dtd"
   xmlns:inkscape="http://www.inkscape.org/namespaces/inkscape"
   version="1.1"
   id="Capa_1"
   x="0px"
   y="0px"
   width="494.936px"
   height="494.936px"
   viewBox="0 0 494.936 494.936"
   style="enable-background:new 0 0 494.936 494.936;"
   xml:space="preserve"
   sodipodi:docname="edit-button.svg"
   inkscape:version="0.92.4 (unknown)"><metadata
   id="metadata407"><rdf:RDF><cc:Work
       rdf:about=""><dc:format>image/svg+xml</dc:format><dc:type
         rdf:resource="http://purl.org/dc/dcmitype/StillImage" /></cc:Work></rdf:RDF></metadata><defs
   id="defs405" /><sodipodi:namedview
   pagecolor="#ffffff"
   bordercolor="#666666"
   borderopacity="1"
   objecttolerance="10"
   gridtolerance="10"
   guidetolerance="10"
   inkscape:pageopacity="0"
   inkscape:pageshadow="2"
   inkscape:window-width="1366"
   inkscape:window-height="718"
   id="namedview403"
   showgrid="false"
   inkscape:zoom="0.47682932"
   inkscape:cx="247.468"
   inkscape:cy="247.468"
   inkscape:window-x="0"
   inkscape:window-y="0"
   inkscape:window-maximized="1"
   inkscape:current-layer="Capa_1" />
<g
   id="g370"
   style="fill:#000000">
	<g
   id="g368"
   style="fill:#000000">
		<path
   d="M389.844,182.85c-6.743,0-12.21,5.467-12.21,12.21v222.968c0,23.562-19.174,42.735-42.736,42.735H67.157    c-23.562,0-42.736-19.174-42.736-42.735V150.285c0-23.562,19.174-42.735,42.736-42.735h267.741c6.743,0,12.21-5.467,12.21-12.21    s-5.467-12.21-12.21-12.21H67.157C30.126,83.13,0,113.255,0,150.285v267.743c0,37.029,30.126,67.155,67.157,67.155h267.741    c37.03,0,67.156-30.126,67.156-67.155V195.061C402.054,188.318,396.587,182.85,389.844,182.85z"
   id="path364"
   style="fill:#000000" />
		<path
   d="M483.876,20.791c-14.72-14.72-38.669-14.714-53.377,0L221.352,229.944c-0.28,0.28-3.434,3.559-4.251,5.396l-28.963,65.069    c-2.057,4.619-1.056,10.027,2.521,13.6c2.337,2.336,5.461,3.576,8.639,3.576c1.675,0,3.362-0.346,4.96-1.057l65.07-28.963    c1.83-0.815,5.114-3.97,5.396-4.25L483.876,74.169c7.131-7.131,11.06-16.61,11.06-26.692    C494.936,37.396,491.007,27.915,483.876,20.791z M466.61,56.897L257.457,266.05c-0.035,0.036-0.055,0.078-0.089,0.107    l-33.989,15.131L238.51,247.3c0.03-0.036,0.071-0.055,0.107-0.09L447.765,38.058c5.038-5.039,13.819-5.033,18.846,0.005    c2.518,2.51,3.905,5.855,3.905,9.414C470.516,51.036,469.127,54.38,466.61,56.897z"
   id="path366"
   style="fill:#000000" />
	</g>
</g>
<g
   id="g372">
</g>
<g
   id="g374">
</g>
<g
   id="g376">
</g>
<g
   id="g378">
</g>
<g
   id="g380">
</g>
<g
   id="g382">
</g>
<g
   id="g384">
</g>
<g
   id="g386">
</g>
<g
   id="g388">
</g>
<g
   id="g390">
</g>
<g
   id="g392">
</g>
<g
   id="g394">
</g>
<g
   id="g396">
</g>
<g
   id="g398">
</g>
<g
   id="g400">
</g>
</svg>