<?xml version="1.0" encoding="UTF-8" standalone="no"?>
<!-- Generator: Adobe Illustrator 16.0.0, SVG Export Plug-In . SVG Version: 6.00 Build 0)  -->

<svg
   xmlns:dc="http://purl.org/dc/elements/1.1/"
   xmlns:cc="http://creativecommons.org/ns#"
   xmlns:rdf="http://www.w3.org/1999/02/22-rdf-syntax-ns#"
   xmlns:svg="http://www.w3.org/2000/svg"
   xmlns="http://www.w3.org/2000/svg"
   xmlns:sodipodi="http://sodipodi.sourceforge.net/DTD/sodipodi-0.dtd"
   xmlns:inkscape="http://www.inkscape.org/namespaces/inkscape"
   version="1.1"
   id="Capa_1"
   x="0px"
   y="0px"
   width="59.465px"
   height="59.465px"
   viewBox="0 0 59.465 59.465"
   style="enable-background:new 0 0 59.465 59.465;"
   xml:space="preserve"
   sodipodi:docname="home.svg"
   inkscape:version="0.92.4 (unknown)"><metadata
   id="metadata24"><rdf:RDF><cc:Work
       rdf:about=""><dc:format>image/svg+xml</dc:format><dc:type
         rdf:resource="http://purl.org/dc/dcmitype/StillImage" /></cc:Work></rdf:RDF></metadata>
   <defs
   id="defs43" /><sodipodi:namedview
   pagecolor="#ffffff"
   bordercolor="#666666"
   borderopacity="1"
   objecttolerance="10"
   gridtolerance="10"
   guidetolerance="10"
   inkscape:pageopacity="0"
   inkscape:pageshadow="2"
   inkscape:window-width="1366"
   inkscape:window-height="718"
   id="namedview41"
   showgrid="false"
   inkscape:zoom="3.9687211"
   inkscape:cx="58.322411"
   inkscape:cy="29.7325"
   inkscape:window-x="0"
   inkscape:window-y="0"
   inkscape:window-maximized="1"
   inkscape:current-layer="g6" />
<g
   id="g8">
	<g
   id="g6">
		<path
   d="M58.862,33.886L45.045,20.069v-9.112c0-1.136-0.921-2.056-2.056-2.056c-1.137,0-2.057,0.92-2.057,2.056v5.001L31.185,6.21    c-0.801-0.803-2.104-0.803-2.905,0L0.603,33.886c-0.803,0.804-0.803,2.104,0,2.907c0.802,0.803,2.104,0.803,2.907,0L29.732,10.57    l26.223,26.223c0.401,0.398,0.93,0.604,1.455,0.604c0.522,0,1.051-0.201,1.452-0.604C59.665,35.988,59.665,34.689,58.862,33.886z"
   id="path2"
   style="fill:#22002b" />
		<path
   d="M52.979,36.245L31.185,14.449c-0.385-0.385-0.908-0.602-1.454-0.602c-0.545,0-1.068,0.217-1.453,0.602L6.484,36.245    c-0.291,0.288-0.487,0.659-0.565,1.062c-0.061,0.314-0.091,0.633-0.091,0.942v10.638c0,2.739,2.229,4.971,4.969,4.971h10.638    c1.378,0,2.707-0.582,3.645-1.599c0.854-0.923,1.324-2.12,1.324-3.373v-7.812c0-1.896,1.453-3.48,3.33-3.658    c1.878,0.178,3.331,1.762,3.331,3.658v7.812c0,1.252,0.472,2.45,1.324,3.373c0.938,1.017,2.269,1.599,3.646,1.599h10.638    c2.74,0,4.971-2.229,4.971-4.972V38.252c0-0.312-0.031-0.63-0.092-0.941C53.471,36.904,53.271,36.533,52.979,36.245z"
   id="path4"
   style="fill:#22002b" />
	<path
   inkscape:connector-curvature="0"
   d="m 29.413447,15.645427 c -0.562906,0 -1.10309,0.203669 -1.50074,0.565019 L 5.4026516,36.667513 c -0.300561,0.270309 -0.5030006,0.618518 -0.5835634,0.996762 -0.063004,0.29471 -0.09399,0.594114 -0.09399,0.884132 v 9.984506 c 0,2.570742 2.3022353,4.66563 5.1322595,4.66563 H 20.844876 c 1.423276,0 2.79594,-0.546247 3.764759,-1.500773 0.882059,-0.8663 1.367502,-1.989768 1.367502,-3.165796 v -7.332106 c 0,-1.779529 1.500738,-3.266224 3.439409,-3.43329 C 31.356248,37.933644 29.249585,35.691773 29.734,37.416 29.74726,31.45372 29.199015,33.766947 29.413447,15.645427 Z"
   id="path4-3"
   style="fill:#999999;fill-opacity:0.35960592;stroke-width:0.98458475"
   sodipodi:nodetypes="ccccsssscssccc" /></g>
</g>
<g
   id="g10">
</g>
<g
   id="g12">
</g>
<g
   id="g14">
</g>
<g
   id="g16">
</g>
<g
   id="g18">
</g>
<g
   id="g20">
</g>
<g
   id="g22">
</g>
<g
   id="g24">
</g>
<g
   id="g26">
</g>
<g
   id="g28">
</g>
<g
   id="g30">
</g>
<g
   id="g32">
</g>
<g
   id="g34">
</g>
<g
   id="g36">
</g>
<g
   id="g38">
</g>
</svg>