<?xml version="1.0" encoding="UTF-8" standalone="no"?>
<svg
   xmlns:dc="http://purl.org/dc/elements/1.1/"
   xmlns:cc="http://creativecommons.org/ns#"
   xmlns:rdf="http://www.w3.org/1999/02/22-rdf-syntax-ns#"
   xmlns:svg="http://www.w3.org/2000/svg"
   xmlns="http://www.w3.org/2000/svg"
   xmlns:sodipodi="http://sodipodi.sourceforge.net/DTD/sodipodi-0.dtd"
   xmlns:inkscape="http://www.inkscape.org/namespaces/inkscape"
   id="Layer_3"
   enable-background="new 0 0 64 64"
   height="512"
   viewBox="0 0 64 64"
   width="512"
   version="1.1"
   sodipodi:docname="netIcon.svg"
   inkscape:version="0.92.4 (unknown)">
  <metadata
     id="metadata35">
    <rdf:RDF>
      <cc:Work
         rdf:about="">
        <dc:format>image/svg+xml</dc:format>
        <dc:type
           rdf:resource="http://purl.org/dc/dcmitype/StillImage" />
      </cc:Work>
    </rdf:RDF>
  </metadata>
  <defs
     id="defs33" />
  <sodipodi:namedview
     pagecolor="#ffffff"
     bordercolor="#666666"
     borderopacity="1"
     objecttolerance="10"
     gridtolerance="10"
     guidetolerance="10"
     inkscape:pageopacity="0"
     inkscape:pageshadow="2"
     inkscape:window-width="1366"
     inkscape:window-height="718"
     id="namedview31"
     showgrid="false"
     inkscape:zoom="0.4609375"
     inkscape:cx="256"
     inkscape:cy="256"
     inkscape:window-x="0"
     inkscape:window-y="0"
     inkscape:window-maximized="1"
     inkscape:current-layer="Layer_3" />
  <g
     id="g28"
     style="fill:#22002b;fill-opacity:0.89162564">
    <path
       d="m27 23h3v2h-3z"
       id="path2"
       style="fill:#22002b;fill-opacity:0.89162564" />
    <path
       d="m22 23h3v2h-3z"
       id="path4"
       style="fill:#22002b;fill-opacity:0.89162564" />
    <path
       d="m22 27h3v2h-3z"
       id="path6"
       style="fill:#22002b;fill-opacity:0.89162564" />
    <path
       d="m50 27c6.065 0 11-4.935 11-11s-4.935-11-11-11-11 4.935-11 11 4.935 11 11 11zm0-10c-2.206 0-4-1.794-4-4 0-1.858 1.28-3.411 3-3.858v-2.142h2v2.142c1.72.447 3 2 3 3.858h-2c0-1.103-.897-2-2-2s-2 .897-2 2 .897 2 2 2c2.206 0 4 1.794 4 4 0 1.858-1.28 3.411-3 3.858v2.142h-2v-2.142c-1.72-.447-3-2-3-3.858h2c0 1.103.897 2 2 2s2-.897 2-2-.897-2-2-2z"
       id="path8"
       style="fill:#22002b;fill-opacity:0.89162564" />
    <path
       d="m42 49h11.369l-2.549-2.266c-2.458-2.185-5.559-3.467-8.82-3.688z"
       id="path10"
       style="fill:#22002b;fill-opacity:0.89162564" />
    <path
       d="m25.974 7c.276-.017.54.099.733.292l10.419 10.419c-.074-.561-.126-1.129-.126-1.711 0-.506.036-1.003.093-1.493l-11.064-11.064-21.745 23.557h3.271l17.702-19.669c.183-.204.443-.324.717-.331z"
       id="path12"
       style="fill:#22002b;fill-opacity:0.89162564" />
    <path
       d="m27 27h3v2h-3z"
       id="path14"
       style="fill:#22002b;fill-opacity:0.89162564" />
    <circle
       cx="52"
       cy="58"
       r="3"
       id="circle16"
       style="fill:#22002b;fill-opacity:0.89162564" />
    <circle
       cx="30"
       cy="58"
       r="3"
       id="circle18"
       style="fill:#22002b;fill-opacity:0.89162564" />
    <path
       d="m29.851 45.239c.674-.599 1.397-1.128 2.149-1.607v-.632c0-3.309-2.691-6-6-6s-6 2.691-6 6v10h1.101c.436-2.141 2.251-3.764 4.47-3.957zm-5.851 1.761h-2v-4h2z"
       id="path20"
       style="fill:#22002b;fill-opacity:0.89162564" />
    <path
       d="m58 51h-32c-1.654 0-3 1.346-3 3v3h2.101c.465-2.279 2.484-4 4.899-4s4.434 1.721 4.899 4h12.202c.465-2.279 2.484-4 4.899-4s4.434 1.721 4.899 4h4.101v-3c0-1.654-1.346-3-3-3z"
       id="path22"
       style="fill:#22002b;fill-opacity:0.89162564" />
    <path
       d="m26 35c4.26 0 7.743 3.35 7.977 7.553 2.186-1.008 4.574-1.553 7.023-1.553 1.36 0 2.7.18 4 .499v-13.499h.008c-2.885-1.205-5.236-3.425-6.629-6.207l-12.341-12.34-17.038 18.931v24.616h9v-10c0-4.411 3.589-8 8-8zm-6-5v-8c0-.552.448-1 1-1h10c.552 0 1 .448 1 1v8c0 .552-.448 1-1 1h-10c-.552 0-1-.448-1-1z"
       id="path24"
       style="fill:#22002b;fill-opacity:0.89162564" />
    <path
       d="m28.631 49h11.369v-5.954c-3.261.221-6.362 1.503-8.82 3.688z"
       id="path26"
       style="fill:#22002b;fill-opacity:0.89162564" />
  </g>
</svg>
